<svg xmlns="http://www.w3.org/2000/svg" version="1.1" xmlns:xlink="http://www.w3.org/1999/xlink" xmlns:svgjs="http://svgjs.com/svgjs" width="1440" height="960" preserveAspectRatio="none" viewBox="0 0 1440 960"><g mask="url(&quot;#SvgjsMask1006&quot;)" fill="none"><rect width="1440" height="960" x="0" y="0" fill="rgba(96, 30, 161, 1)"></rect><path d="M240 171.43C195.89 171.43 145.57 202.93 145.57 240C145.57 280.85 196.75 327.27 240 327.27C276.69 327.27 305.45 281.69 305.45 240C305.45 203.77 275.83 171.43 240 171.43" stroke="rgba(149, 51, 194, 0.58)" stroke-width="2"></path><path d="M960 183.83C894.75 183.83 834.29 204.31 834.29 240C834.29 281.28 891.18 337.78 960 337.78C1064.03 337.78 1180 279.61 1180 240C1180 202.64 1067.6 183.83 960 183.83" stroke="rgba(149, 51, 194, 0.58)" stroke-width="2"></path><path d="M1184.42 0C1236.51 37.21 1149.93 160.85 1200 171.43C1277.72 187.85 1369.25 33.79 1440 54C1489.25 68.07 1440 147 1440 240C1440 360 1440 360 1440 480C1440 600 1440 600 1440 720C1440 825.88 1495.21 897.88 1440 931.76C1375.21 971.52 1315.22 859.33 1200 867.27C1110.22 873.45 1118.14 925.95 1030 960C998.14 972.31 995 960 960 960C840 960 840 960 720 960C600 960 600 960 480 960C360 960 360 960 240 960C163.4 960 156.58 979.77 86.81 960C36.58 945.77 16.96 938.88 0 892C-26.45 818.88 0 806 0 720C0 600 0 600 0 480C0 360 0 360 0 240C0 120 -60 60 0 0C60 -60 120 0 240 0C360 0 360 0 480 0C600 0 600 0 720 0C840 0 840 0 960 0C1072.21 0 1116.51 -48.51 1184.42 0" stroke="rgba(149, 51, 194, 0.58)" stroke-width="2"></path><path d="M480 590.77C446.35 590.77 415.38 664.55 415.38 720C415.38 749.17 447.25 760 480 760C515.3 760 551.49 750.19 551.49 720C551.49 665.57 514.4 590.77 480 590.77" stroke="rgba(149, 51, 194, 0.58)" stroke-width="2"></path><path d="M240 100C149.94 100 131.93 159.77 47.21 240C11.93 273.41 12.56 327.27 0 327.27C-11.05 327.27 0 283.63 0 240C0 120 -60 60 0 0C60 -60 120 0 240 0C331.31 0 338.52 -18.5 422.61 0C458.52 7.9 450.85 26.9 480 52.8C585.91 146.9 692.73 147.43 692.73 240C692.73 331.03 571.15 420 480 420C411.61 420 435.95 323.09 373.64 240C315.95 163.09 313.16 100 240 100" stroke="rgba(149, 51, 194, 0.58)" stroke-width="2"></path><path d="M960 120C863.76 120 758.57 32.27 758.57 0C758.57 -27.73 859.29 0 960 0C1033.24 0 1106.49 -26.17 1106.49 0C1106.49 33.83 1037.72 120 960 120" stroke="rgba(149, 51, 194, 0.58)" stroke-width="2"></path><path d="M1390.34 240C1417.95 227.04 1424.35 204 1440 204C1449.18 204 1440 222 1440 240C1440 360 1440 360 1440 480C1440 545.45 1476.49 567.12 1440 610.91C1376.49 687.12 1341.52 669.24 1240 720C1221.52 729.24 1220.42 730.91 1200 730.91C1152.42 730.91 1149.01 735.55 1104 720C1029.01 694.09 1025.27 648 960 648C920.55 648 906.51 675.08 894.55 720C864.97 831.08 929.75 887.36 876.92 960C842.47 1007.36 798.46 960 720 960C600 960 600 960 480 960C360 960 360 960 240 960C227.24 960 224.75 967.2 214.47 960C104.75 883.2 84.82 886.92 0 792C-22.42 766.92 0 756 0 720C0 664.62 -24.82 654.14 0 609.23C41.49 534.14 60.73 537.23 132.63 480C180.73 441.71 184.83 418.18 240 418.18C306.52 418.18 364.83 423.8 376 480C394.83 574.71 271.75 624.55 300 720C323.75 800.27 388.77 831.43 480 831.43C578.34 831.43 599.18 792.67 679.15 720C719.18 683.62 686.29 657.77 720 613.33C777.31 537.77 782.93 533.62 861.18 480C902.93 451.4 913.52 471.3 960 448.89C1082.93 389.63 1076.97 376.39 1200 316.67C1292.14 271.95 1297.95 283.37 1390.34 240" stroke="rgba(149, 51, 194, 0.58)" stroke-width="2"></path><path d="M240 28.57C122 68.22 86.15 108.44 0 98.18C-33.85 94.15 -34.84 14.25 0 0C85.16 -34.84 120 0 240 0C266.09 0 292.17 -6.67 292.17 0C292.17 7.61 268.09 19.13 240 28.57" stroke="rgba(149, 51, 194, 0.58)" stroke-width="2"></path><path d="M441.82 240C441.82 206.56 455.27 172.8 480 172.8C512.54 172.8 556.36 206.77 556.36 240C556.36 272.68 512.72 304.62 480 304.62C455.45 304.62 441.82 272.47 441.82 240" stroke="rgba(149, 51, 194, 0.58)" stroke-width="2"></path><path d="M960 56.17C914.95 56.17 865.71 15.11 865.71 0C865.71 -12.98 912.86 0 960 0C994.28 0 1028.57 -12.25 1028.57 0C1028.57 15.84 996.38 56.17 960 56.17" stroke="rgba(149, 51, 194, 0.58)" stroke-width="2"></path><path d="M1062.86 480C1062.86 433.08 1130.36 400 1200 400C1276.77 400 1355.68 432.5 1355.68 480C1355.68 533.77 1275.93 602.55 1200 602.55C1129.52 602.55 1062.86 534.35 1062.86 480" stroke="rgba(149, 51, 194, 0.58)" stroke-width="2"></path><path d="M360 960C360 944.99 416.09 917.61 480 902.86C596.09 876.07 618.35 856.29 720 876.92C759.12 884.86 761.54 931.3 761.54 960C761.54 972.84 740.77 960 720 960C600 960 600 960 480 960C420 960 360 973.56 360 960" stroke="rgba(149, 51, 194, 0.58)" stroke-width="2"></path></g><defs><mask id="SvgjsMask1006"><rect width="1440" height="960" fill="#ffffff"></rect></mask></defs></svg>